<svg xmlns="http://www.w3.org/2000/svg" width="32" height="31" fill="none"><path fill="#B1B1B1" fill-rule="evenodd" d="M30.503 5.345a7.652 7.652 0 0 0-1.81-2.745A7.747 7.747 0 0 0 25.92.81c-.992-.383-2.13-.637-3.802-.72C20.445.019 19.913 0 15.66 0c-4.252 0-4.785.018-6.457.09-1.662.083-2.801.337-3.802.728A7.746 7.746 0 0 0 2.627 2.61a7.651 7.651 0 0 0-1.81 2.746C.432 6.336.175 7.464.092 9.109.018 10.764 0 11.291 0 15.5c0 4.21.018 4.736.092 6.39.083 1.655.34 2.783.735 3.764A7.651 7.651 0 0 0 2.636 28.4a7.747 7.747 0 0 0 2.774 1.79c.992.383 2.13.646 3.802.72 1.672.072 2.205.09 6.457.09 4.253 0 4.785-.018 6.457-.09 1.662-.074 2.801-.337 3.803-.72a7.747 7.747 0 0 0 2.773-1.79 7.653 7.653 0 0 0 1.81-2.745c.386-.982.652-2.11.725-3.764.074-1.655.092-2.182.092-6.391 0-4.21-.018-4.736-.092-6.39-.082-1.646-.349-2.774-.734-3.765ZM15.66 23.464c-4.445 0-8.046-3.564-8.046-7.964s3.6-7.964 8.046-7.964c4.445 0 8.046 3.564 8.046 7.964s-3.6 7.964-8.046 7.964ZM24.027 9.09a1.876 1.876 0 0 1-1.883-1.864c0-1.027.846-1.863 1.883-1.863 1.038 0 1.883.836 1.883 1.863a1.882 1.882 0 0 1-1.883 1.864Zm-3.14 6.409c0 2.855-2.334 5.164-5.218 5.164s-5.217-2.31-5.217-5.164c0-2.854 2.333-5.164 5.217-5.164 2.875 0 5.217 2.31 5.217 5.164Z" clip-rule="evenodd"/></svg>