<svg xmlns="http://www.w3.org/2000/svg" width="31" height="35" fill="none"><path fill="#4A4A4A" d="M30.106 24.85c0 2.807-.918 5.158-2.756 7.053-1.835 1.895-4.119 2.843-6.85 2.844h-8.048v-13.43h5.195v8.537h2.854c1.375 0 2.496-.458 3.361-1.373.868-.912 1.3-2.122 1.3-3.631s-.434-2.72-1.3-3.635c-.865-.914-1.985-1.37-3.361-1.37H9.598a9.502 9.502 0 0 1-4.4-1.008 9.386 9.386 0 0 1-2.449-1.834A9.657 9.657 0 0 1 0 10.339v-.766C.076 6.928.993 4.7 2.749 2.892 4.584.997 6.867.049 9.599.049h8.048V13.48h-5.195v-8.54H9.598c-1.375 0-2.496.458-3.362 1.372-.867.914-1.3 2.125-1.3 3.633 0 1.51.433 2.722 1.3 3.634.866.914 1.986 1.372 3.362 1.373h10.903c2.731 0 5.014.947 6.85 2.84 1.837 1.895 2.755 4.247 2.755 7.057Z"/></svg>